<svg width="1169" height="827" viewBox="0 0 1169 827" fill="none" xmlns="http://www.w3.org/2000/svg">
  <!-- Фон страницы -->
  <rect width="1169" height="827" fill="#F5F5F5"/>
  
  <!-- Верхняя навигационная панель -->
  <rect y="0" width="1169" height="70" fill="#5C6BC0"/>
  
  <!-- Лого -->
  <text x="40" y="42" font-family="Montserrat" font-size="24" font-weight="700" fill="white">GeekHeaven</text>
  
  <!-- Строка поиска - активная, т.к. это страница поиска -->
  <rect x="350" y="20" width="400" height="36" rx="18" fill="white" stroke="#FF4081" stroke-width="2"/>
  <text x="375" y="42" font-family="Roboto" font-size="14" fill="#212121">Стрейнджер</text>
  <path d="M725 33.5C725 37.0899 722.09 40 718.5 40C714.91 40 712 37.0899 712 33.5C712 29.9101 714.91 27 718.5 27C722.09 27 725 29.9101 725 33.5Z" stroke="#FF4081" stroke-width="1.5"/>
  
  <!-- Иконки в правой части -->
  <circle cx="1080" cy="35" r="20" fill="white" fill-opacity="0.2"/>
  <text x="1074" y="41" font-family="Montserrat" font-size="24" fill="white">👤</text>
  
  <!-- Боковая навигация -->
  <rect x="0" y="70" width="240" height="757" fill="#212121"/>
  
  <!-- Пункты меню -->
  <text x="50" y="210" font-family="Roboto" font-size="16" fill="white" fill-opacity="0.7">Главная</text>
  <path d="M25 210L35 195L45 210" stroke="white" stroke-width="2" stroke-opacity="0.7"/>
  
  <text x="50" y="260" font-family="Roboto" font-size="16" fill="white" fill-opacity="0.7">Моя библиотека</text>
  <path d="M25 260L35 245L45 260" stroke="white" stroke-width="2" stroke-opacity="0.7"/>
  
  <text x="50" y="310" font-family="Roboto" font-size="16" fill="white" fill-opacity="0.7">Мои коллекции</text>
  <path d="M25 310L35 295L45 310" stroke="white" stroke-width="2" stroke-opacity="0.7"/>
  
  <text x="50" y="360" font-family="Roboto" font-size="16" fill="white" fill-opacity="0.7">Достижения</text>
  <path d="M25 360L35 345L45 360" stroke="white" stroke-width="2" stroke-opacity="0.7"/>
  
  <text x="20" y="420" font-family="Roboto" font-size="14" fill="white" fill-opacity="0.5">КАТЕГОРИИ КОНТЕНТА</text>
  
  <text x="50" y="470" font-family="Roboto" font-size="16" fill="white" fill-opacity="0.7">Игры</text>
  <text x="25" y="470" font-family="Roboto" font-size="16" fill="white" fill-opacity="0.7">🎮</text>
  
  <text x="50" y="520" font-family="Roboto" font-size="16" fill="white" fill-opacity="0.7">Фильмы и сериалы</text>
  <text x="25" y="520" font-family="Roboto" font-size="16" fill="white" fill-opacity="0.7">🎬</text>
  
  <text x="50" y="570" font-family="Roboto" font-size="16" fill="white" fill-opacity="0.7">Книги</text>
  <text x="25" y="570" font-family="Roboto" font-size="16" fill="white" fill-opacity="0.7">📚</text>
  
  <text x="50" y="620" font-family="Roboto" font-size="16" fill="white" fill-opacity="0.7">Комиксы и манга</text>
  <text x="25" y="620" font-family="Roboto" font-size="16" fill="white" fill-opacity="0.7">💬</text>
  
  <text x="50" y="670" font-family="Roboto" font-size="16" fill="white" fill-opacity="0.7">Аниме</text>
  <text x="25" y="670" font-family="Roboto" font-size="16" fill="white" fill-opacity="0.7">✨</text>
  
  <!-- Основной контент -->
  <rect x="240" y="70" width="929" height="757" fill="#F5F5F5"/>
  
  <!-- Заголовок страницы -->
  <text x="280" y="120" font-family="Montserrat" font-size="28" font-weight="700" fill="#212121">Результаты поиска</text>
  <text x="280" y="150" font-family="Roboto" font-size="16" fill="#757575">Найдено 24 результата по запросу "Стрейнджер"</text>
  
  <!-- Фильтры и сортировка -->
  <rect x="280" y="170" width="840" height="60" rx="8" fill="white" filter="drop-shadow(0px 2px 4px rgba(0,0,0,0.05))"/>
  
  <text x="300" y="205" font-family="Roboto" font-size="14" fill="#212121">Тип:</text>
  
  <rect x="340" y="185" width="120" height="30" rx="15" fill="#5C6BC0" stroke="none"/>
  <text x="377" y="205" font-family="Roboto" font-size="14" font-weight="500" fill="white">Все</text>
  
  <rect x="470" y="185" width="120" height="30" rx="15" fill="#F5F5F5" stroke="#E0E0E0"/>
  <text x="505" y="205" font-family="Roboto" font-size="14" fill="#757575">Игры</text>
  
  <rect x="600" y="185" width="150" height="30" rx="15" fill="#F5F5F5" stroke="#E0E0E0"/>
  <text x="620" y="205" font-family="Roboto" font-size="14" fill="#757575">Фильмы/Сериалы</text>
  
  <rect x="760" y="185" width="120" height="30" rx="15" fill="#F5F5F5" stroke="#E0E0E0"/>
  <text x="797" y="205" font-family="Roboto" font-size="14" fill="#757575">Книги</text>
  
  <text x="900" y="205" font-family="Roboto" font-size="14" fill="#212121">Сортировка:</text>
  
  <rect x="980" y="185" width="140" height="30" rx="4" fill="white" stroke="#E0E0E0"/>
  <text x="995" y="205" font-family="Roboto" font-size="14" fill="#757575">По релевантности</text>
  <path d="M1106 195L1096 205L1086 195" stroke="#757575" stroke-width="2"/>
  
  <!-- Раздел с результатами -->
  <!-- Карточки результатов: ряд 1 -->
  <!-- Результат 1 -->
  <rect x="280" y="250" width="265" height="320" rx="8" fill="white" filter="drop-shadow(0px 2px 4px rgba(0,0,0,0.1))"/>
  <rect x="280" y="250" width="265" height="180" rx="8 8 0 0" fill="#FF4081" opacity="0.8"/>
  <text x="290" y="280" font-family="Roboto" font-size="16" fill="white" fill-opacity="0.9">🎬</text>
  <text x="300" y="385" font-family="Montserrat" font-size="18" font-weight="700" fill="#212121">Стрейнджер Синдж</text>
  <text x="300" y="410" font-family="Roboto" font-size="14" fill="#757575">Сериал • 2016-2023</text>
  <text x="300" y="430" font-family="Roboto" font-size="14" fill="#757575">Фантастика, Драма</text>
  <text x="300" y="470" font-family="Roboto" font-size="14" fill="#212121">⭐ 9.2/10 (4.5M оценок)</text>
  <rect x="300" y="490" width="225" height="36" rx="18" fill="#5C6BC0"/>
  <text x="357" y="513" font-family="Roboto" font-size="14" font-weight="500" fill="white">Смотреть →</text>
  <text x="485" y="270" font-family="Roboto" font-size="14" font-weight="700" fill="white">97%</text>
  <circle cx="500" cy="260" r="20" fill="#4CAF50" stroke="white" stroke-width="2"/>
  
  <!-- Результат 2 -->
  <rect x="565" y="250" width="265" height="320" rx="8" fill="white" filter="drop-shadow(0px 2px 4px rgba(0,0,0,0.1))"/>
  <rect x="565" y="250" width="265" height="180" rx="8 8 0 0" fill="#FF4081" opacity="0.8"/>
  <text x="575" y="280" font-family="Roboto" font-size="16" fill="white" fill-opacity="0.9">🎬</text>
  <text x="585" y="385" font-family="Montserrat" font-size="18" font-weight="700" fill="#212121">Стрейнджер: Побег</text>
  <text x="585" y="410" font-family="Roboto" font-size="14" fill="#757575">Фильм • 2019</text>
  <text x="585" y="430" font-family="Roboto" font-size="14" fill="#757575">Триллер, Боевик</text>
  <text x="585" y="470" font-family="Roboto" font-size="14" fill="#212121">⭐ 8.1/10 (1.2M оценок)</text>
  <rect x="585" y="490" width="225" height="36" rx="18" fill="#5C6BC0"/>
  <text x="642" y="513" font-family="Roboto" font-size="14" font-weight="500" fill="white">Смотреть →</text>
  <text x="770" y="270" font-family="Roboto" font-size="14" font-weight="700" fill="white">85%</text>
  <circle cx="785" cy="260" r="20" fill="#4CAF50" stroke="white" stroke-width="2"/>
  
  <!-- Результат 3 -->
  <rect x="850" y="250" width="265" height="320" rx="8" fill="white" filter="drop-shadow(0px 2px 4px rgba(0,0,0,0.1))"/>
  <rect x="850" y="250" width="265" height="180" rx="8 8 0 0" fill="#4CAF50" opacity="0.8"/>
  <text x="860" y="280" font-family="Roboto" font-size="16" fill="white" fill-opacity="0.9">🎮</text>
  <text x="870" y="385" font-family="Montserrat" font-size="18" font-weight="700" fill="#212121">Стрейнджер: Новый мир</text>
  <text x="870" y="410" font-family="Roboto" font-size="14" fill="#757575">Игра • 2022</text>
  <text x="870" y="430" font-family="Roboto" font-size="14" fill="#757575">Приключения, RPG</text>
  <text x="870" y="470" font-family="Roboto" font-size="14" fill="#212121">⭐ 7.8/10 (350K оценок)</text>
  <rect x="870" y="490" width="225" height="36" rx="18" fill="#5C6BC0"/>
  <text x="927" y="513" font-family="Roboto" font-size="14" font-weight="500" fill="white">Играть →</text>
  <text x="1055" y="270" font-family="Roboto" font-size="14" font-weight="700" fill="white">78%</text>
  <circle cx="1070" cy="260" r="20" fill="#4CAF50" stroke="white" stroke-width="2"/>
</svg>