<?xml version="1.0" encoding="UTF-8"?>
<svg width="300" height="450" viewBox="0 0 300 450" xmlns="http://www.w3.org/2000/svg">
  <!-- Фоновый градиент -->
  <defs>
    <linearGradient id="poster-gradient" x1="0%" y1="0%" x2="100%" y2="100%">
      <stop offset="0%" style="stop-color:#1A237E"/>
      <stop offset="100%" style="stop-color:#0D47A1"/>
    </linearGradient>
    <filter id="glow" x="-50%" y="-50%" width="200%" height="200%">
      <feGaussianBlur in="SourceGraphic" stdDeviation="3" result="blur"/>
      <feMerge>
        <feMergeNode in="blur"/>
        <feMergeNode in="SourceGraphic"/>
      </feMerge>
    </filter>
  </defs>

  <!-- Фон -->
  <rect width="300" height="450" fill="url(#poster-gradient)"/>

  <!-- Космическая сетка -->
  <g id="space-grid" stroke="rgba(255,255,255,0.1)" stroke-width="0.5">
    <path d="M0,150 L300,150 M0,300 L300,300"/>
    <path d="M100,0 L100,450 M200,0 L200,450"/>
  </g>

  <!-- Планета -->
  <circle cx="150" cy="225" r="80" fill="#1E88E5" opacity="0.8"/>
  <circle cx="150" cy="225" r="70" fill="#42A5F5" opacity="0.6"/>

  <!-- Кольца планеты -->
  <g transform="rotate(-20,150,225)">
    <ellipse cx="150" cy="225" rx="120" ry="30" fill="none" stroke="#90CAF9" stroke-width="2" opacity="0.4"/>
    <ellipse cx="150" cy="225" rx="100" ry="25" fill="none" stroke="#90CAF9" stroke-width="2" opacity="0.6"/>
  </g>

  <!-- Звёзды -->
  <g id="stars" fill="#FFFFFF">
    <circle cx="50" cy="50" r="1"/>
    <circle cx="250" cy="50" r="1"/>
    <circle cx="150" cy="100" r="1"/>
    <circle cx="75" cy="350" r="1"/>
    <circle cx="225" cy="350" r="1"/>
  </g>

  <!-- Текст -->
  <g id="title" fill="#FFFFFF" font-family="Arial, sans-serif" filter="url(#glow)">
    <text x="150" y="400" text-anchor="middle" font-size="24" font-weight="bold">SPACE ODYSSEY</text>
    <text x="150" y="430" text-anchor="middle" font-size="14">2024</text>
  </g>
</svg>