<svg width="390" height="844" viewBox="0 0 390 844" fill="none" xmlns="http://www.w3.org/2000/svg">
  <!-- Фон страницы -->
  <rect width="390" height="844" fill="#F5F5F5"/>
  
  <!-- Верхняя навигационная панель -->
  <rect y="0" width="390" height="60" fill="#5C6BC0"/>
  
  <!-- Лого -->
  <text x="20" y="37" font-family="Montserrat" font-size="18" font-weight="700" fill="white">GeekHeaven</text>
  
  <!-- Иконка поиска -->
  <circle cx="325" cy="30" r="15" fill="white" fill-opacity="0.2"/>
  <path d="M332 33.5C332 37.0899 329.09 40 325.5 40C321.91 40 319 37.0899 319 33.5C319 29.9101 321.91 27 325.5 27C329.09 27 332 29.9101 332 33.5Z" stroke="white" stroke-width="1.5"/>
  
  <!-- Иконка профиля -->
  <circle cx="360" cy="30" r="15" fill="white" fill-opacity="0.2"/>
  <text x="354" y="36" font-family="Montserrat" font-size="18" fill="white">👤</text>
  
  <!-- Заголовок страницы -->
  <text x="20" y="90" font-family="Montserrat" font-size="20" font-weight="700" fill="#212121">Редактирование коллекции</text>
  
  <!-- Форма редактирования коллекции -->
  <rect x="20" y="110" width="350" height="200" rx="8" fill="white" filter="drop-shadow(0px 2px 4px rgba(0,0,0,0.1))"/>
  
  <!-- Поля формы -->
  <text x="35" y="130" font-family="Roboto" font-size="14" fill="#757575">Название коллекции</text>
  <rect x="35" y="140" width="320" height="40" rx="4" fill="white" stroke="#BDBDBD" stroke-width="1"/>
  <text x="45" y="165" font-family="Roboto" font-size="14" fill="#212121">Мои любимые фильмы</text>
  
  <text x="35" y="200" font-family="Roboto" font-size="14" fill="#757575">Описание</text>
  <rect x="35" y="210" width="320" height="60" rx="4" fill="white" stroke="#BDBDBD" stroke-width="1"/>
  <text x="45" y="230" font-family="Roboto" font-size="14" fill="#212121">Коллекция фильмов, которые я считаю</text>
  <text x="45" y="250" font-family="Roboto" font-size="14" fill="#212121">лучшими за последние годы</text>
  
  <!-- Настройки приватности -->
  <rect x="20" y="320" width="350" height="100" rx="8" fill="white" filter="drop-shadow(0px 2px 4px rgba(0,0,0,0.1))"/>
  
  <text x="35" y="340" font-family="Montserrat" font-size="16" font-weight="700" fill="#212121">Настройки приватности</text>
  
  <!-- Переключатель приватности -->
  <text x="35" y="370" font-family="Roboto" font-size="14" fill="#212121">Публичная коллекция</text>
  <rect x="300" y="360" width="40" height="20" rx="10" fill="#5C6BC0"/>
  <circle cx="330" cy="370" r="8" fill="white"/>
  
  <text x="35" y="400" font-family="Roboto" font-size="12" fill="#757575">Публичные коллекции видны всем пользователям</text>
  
  <!-- Элементы коллекции -->
  <text x="20" y="450" font-family="Montserrat" font-size="16" font-weight="700" fill="#212121">Элементы коллекции (3)</text>
  <text x="300" y="450" font-family="Roboto" font-size="14" fill="#5C6BC0">+ Добавить</text>
  
  <!-- Список элементов -->
  <rect x="20" y="470" width="350" height="80" rx="8" fill="white" filter="drop-shadow(0px 2px 4px rgba(0,0,0,0.1))"/>
  <rect x="20" y="470" width="60" height="80" fill="#EEEEEE" rx="8 0 0 8"/>
  <text x="80" y="490" font-family="Roboto" font-size="14" font-weight="500" fill="#212121">Начало</text>
  <text x="80" y="510" font-family="Roboto" font-size="12" fill="#757575">2010, Фильм</text>
  <text x="80" y="530" font-family="Roboto" font-size="12" fill="#757575">9.3 ⭐</text>
  <text x="340" y="500" font-family="Roboto" font-size="18" fill="#FF5252">×</text>
  
  <rect x="20" y="560" width="350" height="80" rx="8" fill="white" filter="drop-shadow(0px 2px 4px rgba(0,0,0,0.1))"/>
  <rect x="20" y="560" width="60" height="80" fill="#EEEEEE" rx="8 0 0 8"/>
  <text x="80" y="580" font-family="Roboto" font-size="14" font-weight="500" fill="#212121">Интерстеллар</text>
  <text x="80" y="600" font-family="Roboto" font-size="12" fill="#757575">2014, Фильм</text>
  <text x="80" y="620" font-family="Roboto" font-size="12" fill="#757575">8.9 ⭐</text>
  <text x="340" y="590" font-family="Roboto" font-size="18" fill="#FF5252">×</text>
  
  <rect x="20" y="650" width="350" height="80" rx="8" fill="white" filter="drop-shadow(0px 2px 4px rgba(0,0,0,0.1))"/>
  <rect x="20" y="650" width="60" height="80" fill="#EEEEEE" rx="8 0 0 8"/>
  <text x="80" y="670" font-family="Roboto" font-size="14" font-weight="500" fill="#212121">Прибытие</text>
  <text x="80" y="690" font-family="Roboto" font-size="12" fill="#757575">2016, Фильм</text>
  <text x="80" y="710" font-family="Roboto" font-size="12" fill="#757575">8.5 ⭐</text>
  <text x="340" y="680" font-family="Roboto" font-size="18" fill="#FF5252">×</text>
  
  <!-- Кнопки действий -->
  <rect x="20" y="750" width="165" height="40" rx="20" fill="#5C6BC0"/>
  <text x="102" y="775" font-family="Roboto" font-size="14" font-weight="500" fill="white" text-anchor="middle">Сохранить</text>
  
  <rect x="205" y="750" width="165" height="40" rx="20" fill="white" stroke="#BDBDBD" stroke-width="1"/>
  <text x="287" y="775" font-family="Roboto" font-size="14" font-weight="500" fill="#757575" text-anchor="middle">Отмена</text>
  
  <!-- Нижняя навигация для мобильной версии -->
  <rect x="0" y="800" width="390" height="44" fill="white" stroke="#E0E0E0" stroke-width="1"/>
  
  <!-- Иконки нижней навигации -->
  <circle cx="60" cy="822" r="20" fill="#F5F5F5"/>
  <text x="60" y="828" font-family="Montserrat" font-size="16" fill="#9E9E9E" text-anchor="middle">🏠</text>
  
  <circle cx="140" cy="822" r="20" fill="#5C6BC0" fill-opacity="0.2"/>
  <text x="140" y="828" font-family="Montserrat" font-size="16" fill="#5C6BC0" text-anchor="middle">📚</text>
  
  <circle cx="220" cy="822" r="20" fill="#F5F5F5"/>
  <text x="220" y="828" font-family="Montserrat" font-size="16" fill="#9E9E9E" text-anchor="middle">🏆</text>
  
  <circle cx="300" cy="822" r="20" fill="#F5F5F5"/>
  <text x="300" y="828" font-family="Montserrat" font-size="16" fill="#9E9E9E" text-anchor="middle">⚙️</text>
</svg>