<svg width="390" height="844" viewBox="0 0 390 844" fill="none" xmlns="http://www.w3.org/2000/svg">
  <!-- Фон страницы -->
  <rect width="390" height="844" fill="#F5F5F5"/>
  
  <!-- Верхняя навигационная панель -->
  <rect y="0" width="390" height="60" fill="#5C6BC0"/>
  
  <!-- Лого -->
  <text x="20" y="37" font-family="Montserrat" font-size="18" font-weight="700" fill="white">GeekHeaven</text>
  
  <!-- Иконка поиска -->
  <circle cx="325" cy="30" r="15" fill="white" fill-opacity="0.2"/>
  <path d="M332 33.5C332 37.0899 329.09 40 325.5 40C321.91 40 319 37.0899 319 33.5C319 29.9101 321.91 27 325.5 27C329.09 27 332 29.9101 332 33.5Z" stroke="white" stroke-width="1.5"/>
  
  <!-- Иконка профиля -->
  <circle cx="360" cy="30" r="15" fill="white" fill-opacity="0.2"/>
  <text x="354" y="36" font-family="Montserrat" font-size="18" fill="white">👤</text>
  
  <!-- Основной контент -->
  <!-- Приветствие -->
  <text x="20" y="90" font-family="Montserrat" font-size="20" font-weight="700" fill="#212121">Добро пожаловать, Пользователь!</text>
  
  <!-- Категории контента (прокрутка горизонтальная) -->
  <text x="20" y="130" font-family="Roboto" font-size="16" font-weight="500" fill="#616161">Категории</text>
  
  <!-- Чипсы категорий -->
  <rect x="20" y="140" width="70" height="30" rx="15" fill="#5C6BC0"/>
  <text x="55" y="160" font-family="Roboto" font-size="12" fill="white" text-anchor="middle">Фильмы</text>
  
  <rect x="100" y="140" width="70" height="30" rx="15" fill="#FFFFFF" stroke="#BDBDBD" stroke-width="1"/>
  <text x="135" y="160" font-family="Roboto" font-size="12" fill="#616161" text-anchor="middle">Сериалы</text>
  
  <rect x="180" y="140" width="70" height="30" rx="15" fill="#FFFFFF" stroke="#BDBDBD" stroke-width="1"/>
  <text x="215" y="160" font-family="Roboto" font-size="12" fill="#616161" text-anchor="middle">Игры</text>
  
  <rect x="260" y="140" width="70" height="30" rx="15" fill="#FFFFFF" stroke="#BDBDBD" stroke-width="1"/>
  <text x="295" y="160" font-family="Roboto" font-size="12" fill="#616161" text-anchor="middle">Книги</text>
  
  <!-- Рекомендации -->
  <text x="20" y="200" font-family="Roboto" font-size="16" font-weight="500" fill="#616161">Рекомендации для вас</text>
  
  <!-- Карточка рекомендации 1 -->
  <rect x="20" y="210" width="350" height="120" rx="8" fill="white" stroke="#E0E0E0" stroke-width="1"/>
  <rect x="20" y="210" width="80" height="120" fill="#EEEEEE" rx="8 0 0 8"/>
  <text x="110" y="235" font-family="Roboto" font-size="14" font-weight="500" fill="#212121">Начало</text>
  <text x="110" y="255" font-family="Roboto" font-size="12" fill="#757575">2010, Научная фантастика</text>
  <text x="110" y="280" font-family="Roboto" font-size="12" fill="#757575">9.3 ⭐</text>
  <rect x="300" y="225" width="60" height="25" rx="4" fill="#4CAF50"/>
  <text x="330" y="242" font-family="Roboto" font-size="12" fill="white" text-anchor="middle">+ Добавить</text>
  
  <!-- Карточка рекомендации 2 -->
  <rect x="20" y="340" width="350" height="120" rx="8" fill="white" stroke="#E0E0E0" stroke-width="1"/>
  <rect x="20" y="340" width="80" height="120" fill="#EEEEEE" rx="8 0 0 8"/>
  <text x="110" y="365" font-family="Roboto" font-size="14" font-weight="500" fill="#212121">Интерстеллар</text>
  <text x="110" y="385" font-family="Roboto" font-size="12" fill="#757575">2014, Научная фантастика</text>
  <text x="110" y="410" font-family="Roboto" font-size="12" fill="#757575">8.9 ⭐</text>
  <rect x="300" y="355" width="60" height="25" rx="4" fill="#4CAF50"/>
  <text x="330" y="372" font-family="Roboto" font-size="12" fill="white" text-anchor="middle">+ Добавить</text>
  
  <!-- Последние добавления -->
  <text x="20" y="480" font-family="Roboto" font-size="16" font-weight="500" fill="#616161">Последние добавления</text>
  
  <!-- Горизонтальный список последних добавлений -->
  <rect x="20" y="490" width="120" height="180" rx="8" fill="white" stroke="#E0E0E0" stroke-width="1"/>
  <rect x="20" y="490" width="120" height="120" fill="#EEEEEE" rx="8 8 0 0"/>
  <text x="80" y="630" font-family="Roboto" font-size="12" font-weight="500" fill="#212121" text-anchor="middle">Звёздные войны</text>
  <text x="80" y="650" font-family="Roboto" font-size="11" fill="#757575" text-anchor="middle">1977, Фантастика</text>
  
  <rect x="150" y="490" width="120" height="180" rx="8" fill="white" stroke="#E0E0E0" stroke-width="1"/>
  <rect x="150" y="490" width="120" height="120" fill="#EEEEEE" rx="8 8 0 0"/>
  <text x="210" y="630" font-family="Roboto" font-size="12" font-weight="500" fill="#212121" text-anchor="middle">Тёмный рыцарь</text>
  <text x="210" y="650" font-family="Roboto" font-size="11" fill="#757575" text-anchor="middle">2008, Боевик</text>
  
  <rect x="280" y="490" width="120" height="180" rx="8" fill="white" stroke="#E0E0E0" stroke-width="1" opacity="0.4"/>
  <rect x="280" y="490" width="120" height="120" fill="#EEEEEE" rx="8 8 0 0" opacity="0.4"/>
  <text x="340" y="630" font-family="Roboto" font-size="12" font-weight="500" fill="#212121" text-anchor="middle" opacity="0.4">Бойцовский клуб</text>
  <text x="340" y="650" font-family="Roboto" font-size="11" fill="#757575" text-anchor="middle" opacity="0.4">1999, Триллер</text>
  
  <!-- Достижения -->
  <text x="20" y="700" font-family="Roboto" font-size="16" font-weight="500" fill="#616161">Ваши достижения</text>
  
  <!-- Карточка достижения -->
  <rect x="20" y="710" width="350" height="70" rx="8" fill="white" stroke="#E0E0E0" stroke-width="1"/>
  <circle cx="55" cy="745" r="25" fill="#EEEEEE"/>
  <text x="55" y="756" font-family="Montserrat" font-size="24" fill="#9E9E9E" text-anchor="middle">🏆</text>
  <text x="110" y="735" font-family="Roboto" font-size="14" font-weight="500" fill="#212121">Киноман начинающий</text>
  <text x="110" y="755" font-family="Roboto" font-size="12" fill="#757575">Добавлено 10 из 50 фильмов</text>
  <rect x="290" y="743" width="60" height="4" rx="2" fill="#EEEEEE"/>
  <rect x="290" y="743" width="12" height="4" rx="2" fill="#4CAF50"/>
  
  <!-- Нижняя навигация для мобильной версии -->
  <rect x="0" y="800" width="390" height="44" fill="white" stroke="#E0E0E0" stroke-width="1"/>
  
  <!-- Иконки нижней навигации -->
  <circle cx="60" cy="822" r="20" fill="#5C6BC0" fill-opacity="0.2"/>
  <text x="60" y="828" font-family="Montserrat" font-size="16" fill="#5C6BC0" text-anchor="middle">🏠</text>
  
  <circle cx="140" cy="822" r="20" fill="#F5F5F5"/>
  <text x="140" y="828" font-family="Montserrat" font-size="16" fill="#9E9E9E" text-anchor="middle">📚</text>
  
  <circle cx="220" cy="822" r="20" fill="#F5F5F5"/>
  <text x="220" y="828" font-family="Montserrat" font-size="16" fill="#9E9E9E" text-anchor="middle">🏆</text>
  
  <circle cx="300" cy="822" r="20" fill="#F5F5F5"/>
  <text x="300" y="828" font-family="Montserrat" font-size="16" fill="#9E9E9E" text-anchor="middle">⚙️</text>
</svg>