<svg width="390" height="844" viewBox="0 0 390 844" fill="none" xmlns="http://www.w3.org/2000/svg">
  <!-- Фон страницы -->
  <rect width="390" height="844" fill="#F5F5F5"/>
  
  <!-- Верхняя навигационная панель -->
  <rect y="0" width="390" height="60" fill="#5C6BC0"/>
  
  <!-- Лого -->
  <text x="20" y="37" font-family="Montserrat" font-size="18" font-weight="700" fill="white">GeekHeaven</text>
  
  <!-- Иконка поиска (активная) -->
  <circle cx="325" cy="30" r="15" fill="white" fill-opacity="0.3"/>
  <path d="M332 33.5C332 37.0899 329.09 40 325.5 40C321.91 40 319 37.0899 319 33.5C319 29.9101 321.91 27 325.5 27C329.09 27 332 29.9101 332 33.5Z" stroke="white" stroke-width="1.5"/>
  
  <!-- Иконка профиля -->
  <circle cx="360" cy="30" r="15" fill="white" fill-opacity="0.2"/>
  <text x="354" y="36" font-family="Montserrat" font-size="18" fill="white">👤</text>
  
  <!-- Поисковая строка (расширенная - активное состояние) -->
  <rect x="20" y="80" width="350" height="50" rx="25" fill="white" stroke="#FF4081" stroke-width="1.5"/>
  <text x="45" y="110" font-family="Roboto" font-size="16" fill="#212121">Стрейнджер</text>
  <path d="M340 105C340 108.866 336.866 112 333 112C329.134 112 326 108.866 326 105C326 101.134 329.134 98 333 98C336.866 98 340 101.134 340 105Z" stroke="#FF4081" stroke-width="1.5"/>
  
  <!-- Фильтры поиска -->
  <text x="20" y="160" font-family="Roboto" font-size="16" font-weight="500" fill="#616161">Фильтры</text>
  
  <!-- Чипсы фильтров -->
  <rect x="20" y="170" width="100" height="30" rx="15" fill="#5C6BC0"/>
  <text x="70" y="190" font-family="Roboto" font-size="12" fill="white" text-anchor="middle">Все типы</text>
  
  <rect x="130" y="170" width="70" height="30" rx="15" fill="#FFFFFF" stroke="#BDBDBD" stroke-width="1"/>
  <text x="165" y="190" font-family="Roboto" font-size="12" fill="#616161" text-anchor="middle">Фильмы</text>
  
  <rect x="210" y="170" width="70" height="30" rx="15" fill="#FFFFFF" stroke="#BDBDBD" stroke-width="1"/>
  <text x="245" y="190" font-family="Roboto" font-size="12" fill="#616161" text-anchor="middle">Сериалы</text>
  
  <rect x="290" y="170" width="70" height="30" rx="15" fill="#FFFFFF" stroke="#BDBDBD" stroke-width="1"/>
  <text x="325" y="190" font-family="Roboto" font-size="12" fill="#616161" text-anchor="middle">Игры</text>
  
  <!-- Результаты поиска -->
  <text x="20" y="230" font-family="Roboto" font-size="16" font-weight="500" fill="#212121">Результаты поиска</text>
  
  <!-- Карточка результата 1 -->
  <rect x="20" y="240" width="350" height="100" rx="8" fill="white" stroke="#E0E0E0" stroke-width="1"/>
  <rect x="20" y="240" width="70" height="100" fill="#EEEEEE" rx="8 0 0 8"/>
  <text x="100" y="265" font-family="Roboto" font-size="14" font-weight="500" fill="#212121">Очень странные дела</text>
  <text x="100" y="285" font-family="Roboto" font-size="12" fill="#757575">2016, Сериал</text>
  <text x="100" y="310" font-family="Roboto" font-size="12" fill="#757575">8.7 ⭐</text>
  <rect x="290" y="255" width="60" height="25" rx="4" fill="#4CAF50"/>
  <text x="320" y="272" font-family="Roboto" font-size="12" fill="white" text-anchor="middle">+ Добавить</text>
  
  <!-- Карточка результата 2 -->
  <rect x="20" y="350" width="350" height="100" rx="8" fill="white" stroke="#E0E0E0" stroke-width="1"/>
  <rect x="20" y="350" width="70" height="100" rx="8" fill="#EEEEEE"/>
  <text x="100" y="375" font-family="Roboto" font-size="14" font-weight="500" fill="#212121">Доктор Стрейндж</text>
  <text x="100" y="395" font-family="Roboto" font-size="12" fill="#757575">2016, Фильм</text>
  <text x="100" y="420" font-family="Roboto" font-size="12" fill="#757575">7.5 ⭐</text>
  <rect x="290" y="365" width="60" height="25" rx="4" fill="#4CAF50"/>
  <text x="320" y="382" font-family="Roboto" font-size="12" fill="white" text-anchor="middle">+ Добавить</text>
</svg>