<svg width="1169" height="827" viewBox="0 0 1169 827" fill="none" xmlns="http://www.w3.org/2000/svg">
  <!-- Фон страницы -->
  <rect width="1169" height="827" fill="#F5F5F5"/>
  
  <!-- Верхняя навигационная панель -->
  <rect y="0" width="1169" height="70" fill="#5C6BC0"/>
  
  <!-- Лого -->
  <text x="40" y="42" font-family="Montserrat" font-size="24" font-weight="700" fill="white">GeekHeaven</text>
  
  <!-- Строка поиска -->
  <rect x="350" y="20" width="400" height="36" rx="18" fill="white" fill-opacity="0.2" stroke="white" stroke-width="1"/>
  <text x="375" y="42" font-family="Roboto" font-size="14" fill="white" fill-opacity="0.8">Поиск...</text>
  <path d="M725 33.5C725 37.0899 722.09 40 718.5 40C714.91 40 712 37.0899 712 33.5C712 29.9101 714.91 27 718.5 27C722.09 27 725 29.9101 725 33.5Z" stroke="white" stroke-width="1.5"/>
  
  <!-- Иконки в правой части -->
  <circle cx="1080" cy="35" r="20" fill="white" fill-opacity="0.2"/>
  <text x="1074" y="41" font-family="Montserrat" font-size="24" fill="white">👤</text>
  
  <!-- Боковая навигация -->
  <rect x="0" y="70" width="240" height="757" fill="#212121"/>
  
  <!-- Пункты меню -->
  <text x="50" y="210" font-family="Roboto" font-size="16" fill="white" fill-opacity="0.7">Главная</text>
  <path d="M25 210L35 195L45 210" stroke="white" stroke-width="2" stroke-opacity="0.7"/>
  
  <rect x="0" y="230" width="240" height="50" fill="#5C6BC0" fill-opacity="0.2"/>
  <text x="50" y="260" font-family="Roboto" font-size="16" fill="white">Моя библиотека</text>
  <path d="M25 260L35 245L45 260" stroke="white" stroke-width="2"/>
  
  <text x="50" y="310" font-family="Roboto" font-size="16" fill="white" fill-opacity="0.7">Мои коллекции</text>
  <path d="M25 310L35 295L45 310" stroke="white" stroke-width="2" stroke-opacity="0.7"/>
  
  <text x="50" y="360" font-family="Roboto" font-size="16" fill="white" fill-opacity="0.7">Достижения</text>
  <path d="M25 360L35 345L45 360" stroke="white" stroke-width="2" stroke-opacity="0.7"/>
  
  <text x="20" y="420" font-family="Roboto" font-size="14" fill="white" fill-opacity="0.5">КАТЕГОРИИ КОНТЕНТА</text>
  
  <text x="50" y="470" font-family="Roboto" font-size="16" fill="white" fill-opacity="0.7">Игры</text>
  <text x="25" y="470" font-family="Roboto" font-size="16" fill="white" fill-opacity="0.7">🎮</text>
  
  <text x="50" y="520" font-family="Roboto" font-size="16" fill="white" fill-opacity="0.7">Фильмы и сериалы</text>
  <text x="25" y="520" font-family="Roboto" font-size="16" fill="white" fill-opacity="0.7">🎬</text>
  
  <text x="50" y="570" font-family="Roboto" font-size="16" fill="white" fill-opacity="0.7">Книги</text>
  <text x="25" y="570" font-family="Roboto" font-size="16" fill="white" fill-opacity="0.7">📚</text>
  
  <text x="50" y="620" font-family="Roboto" font-size="16" fill="white" fill-opacity="0.7">Комиксы и манга</text>
  <text x="25" y="620" font-family="Roboto" font-size="16" fill="white" fill-opacity="0.7">💬</text>
  
  <text x="50" y="670" font-family="Roboto" font-size="16" fill="white" fill-opacity="0.7">Аниме</text>
  <text x="25" y="670" font-family="Roboto" font-size="16" fill="white" fill-opacity="0.7">✨</text>
  
  <!-- Основной контент -->
  <rect x="240" y="70" width="929" height="757" fill="#F5F5F5"/>
  
  <!-- Заголовок страницы -->
  <text x="280" y="120" font-family="Montserrat" font-size="28" font-weight="700" fill="#212121">Моя библиотека</text>
  <text x="280" y="150" font-family="Roboto" font-size="16" fill="#757575">Здесь собран весь контент, который вы добавили</text>
  
  <!-- Панель вкладок -->
  <rect x="280" y="170" width="840" height="60" rx="8" fill="white" filter="drop-shadow(0px 2px 4px rgba(0,0,0,0.05))"/>
  
  <rect x="300" y="185" width="100" height="30" rx="15" fill="#5C6BC0"/>
  <text x="335" y="205" font-family="Roboto" font-size="14" font-weight="500" fill="white">Все</text>
  
  <rect x="410" y="185" width="140" height="30" rx="15" fill="#F5F5F5" stroke="#E0E0E0"/>
  <text x="430" y="205" font-family="Roboto" font-size="14" fill="#757575">Смотрю/Играю</text>
  
  <rect x="560" y="185" width="100" height="30" rx="15" fill="#F5F5F5" stroke="#E0E0E0"/>
  <text x="575" y="205" font-family="Roboto" font-size="14" fill="#757575">Завершено</text>
  
  <rect x="670" y="185" width="100" height="30" rx="15" fill="#F5F5F5" stroke="#E0E0E0"/>
  <text x="690" y="205" font-family="Roboto" font-size="14" fill="#757575">В планах</text>
  
  <rect x="780" y="185" width="100" height="30" rx="15" fill="#F5F5F5" stroke="#E0E0E0"/>
  <text x="800" y="205" font-family="Roboto" font-size="14" fill="#757575">Брошено</text>
  
  <rect x="890" y="185" width="100" height="30" rx="15" fill="#F5F5F5" stroke="#E0E0E0"/>
  <text x="910" y="205" font-family="Roboto" font-size="14" fill="#757575">Любимое</text>
  
  <!-- Панель фильтров -->
  <rect x="280" y="240" width="840" height="60" rx="8" fill="white" filter="drop-shadow(0px 2px 4px rgba(0,0,0,0.05))"/>
  
  <text x="300" y="275" font-family="Roboto" font-size="14" fill="#212121">Тип:</text>
  
  <rect x="340" y="255" width="140" height="30" rx="4" fill="white" stroke="#E0E0E0"/>
  <text x="355" y="275" font-family="Roboto" font-size="14" fill="#757575">Все типы</text>
  <path d="M465 265L455 275L445 265" stroke="#757575" stroke-width="2"/>
  
  <text x="500" y="275" font-family="Roboto" font-size="14" fill="#212121">Сортировка:</text>
  
  <rect x="590" y="255" width="180" height="30" rx="4" fill="white" stroke="#E0E0E0"/>
  <text x="605" y="275" font-family="Roboto" font-size="14" fill="#757575">По дате добавления</text>
  <path d="M755 265L745 275L735 265" stroke="#757575" stroke-width="2"/>
  
  <rect x="790" y="255" width="210" height="30" rx="15" fill="white" stroke="#E0E0E0"/>
  <text x="805" y="275" font-family="Roboto" font-size="14" fill="#757575">Поиск в библиотеке 🔍</text>
  
  <!-- Грид с контентом -->
  <!-- Ряд 1 -->
  <!-- Элемент 1 -->
  <rect x="280" y="320" width="200" height="280" rx="8" fill="white" filter="drop-shadow(0px 2px 4px rgba(0,0,0,0.1))"/>
  <rect x="280" y="320" width="200" height="140" rx="8 8 0 0" fill="#5C6BC0" opacity="0.8"/>
  <text x="290" y="350" font-family="Roboto" font-size="16" fill="white" fill-opacity="0.9">🎮</text>
  <text x="300" y="480" font-family="Roboto" font-size="16" font-weight="700" fill="#212121">God of Warfare</text>
  <text x="300" y="500" font-family="Roboto" font-size="14" fill="#757575">Игра • 2023</text>
  <rect x="300" y="520" width="160" height="6" rx="3" fill="#E0E0E0"/>
  <rect x="300" y="520" width="80" height="6" rx="3" fill="#4CAF50"/>
  <text x="300" y="540" font-family="Roboto" font-size="12" fill="#757575">Прогресс: 50%</text>
  <text x="300" y="560" font-family="Roboto" font-size="12" fill="#5C6BC0">Статус: Играю</text>
  <circle cx="435" cy="340" r="15" fill="#FFC107" stroke="white" stroke-width="2"/>
  <text x="430" y="345" font-family="Roboto" font-size="12" font-weight="700" fill="white">★</text>
  
  <!-- Элемент 2 -->
  <rect x="500" y="320" width="200" height="280" rx="8" fill="white" filter="drop-shadow(0px 2px 4px rgba(0,0,0,0.1))"/>
  <rect x="500" y="320" width="200" height="140" rx="8 8 0 0" fill="#FF4081" opacity="0.8"/>
  <text x="510" y="350" font-family="Roboto" font-size="16" fill="white" fill-opacity="0.9">🎬</text>
  <text x="520" y="480" font-family="Roboto" font-size="16" font-weight="700" fill="#212121">Дюна: Часть вторая</text>
  <text x="520" y="500" font-family="Roboto" font-size="14" fill="#757575">Фильм • 2023</text>
  <rect x="520" y="520" width="160" height="6" rx="3" fill="#E0E0E0"/>
  <rect x="520" y="520" width="160" height="6" rx="3" fill="#4CAF50"/>
  <text x="520" y="540" font-family="Roboto" font-size="12" fill="#757575">Прогресс: 100%</text>
  <text x="520" y="560" font-family="Roboto" font-size="12" fill="#4CAF50">Статус: Завершено</text>
  <circle cx="655" cy="340" r="15" fill="#FFC107" stroke="white" stroke-width="2"/>
  <text x="650" y="345" font-family="Roboto" font-size="12" font-weight="700" fill="white">★</text>
  
  <!-- Элемент 3 -->
  <rect x="720" y="320" width="200" height="280" rx="8" fill="white" filter="drop-shadow(0px 2px 4px rgba(0,0,0,0.1))"/>
  <rect x="720" y="320" width="200" height="140" rx="8" fill="#FFC107" opacity="0.8"/>
  <text x="730" y="350" font-family="Roboto" font-size="16" fill="white" fill-opacity="0.9">📚</text>
  <text x="740" y="480" font-family="Roboto" font-size="16" font-weight="700" fill="#212121">Нейромант</text>
  <text x="740" y="500" font-family="Roboto" font-size="14" fill="#757575">Книга • У. Гибсон</text>
  <rect x="740" y="520" width="160" height="6" rx="3" fill="#E0E0E0"/>
  <rect x="740" y="520" width="80" height="6" rx="3" fill="#4CAF50"/>
  <text x="740" y="540" font-family="Roboto" font-size="12" fill="#757575">Прогресс: 50%</text>
  <text x="740" y="560" font-family="Roboto" font-size="12" fill="#5C6BC0">Статус: Читаю</text>
  <circle cx="875" cy="340" r="15" fill="#FFC107" stroke="white" stroke-width="2"/>
  <text x="870" y="345" font-family="Roboto" font-size="12" font-weight="700" fill="white">★</text>
</svg>