<svg width="1169" height="827" viewBox="0 0 1169 827" fill="none" xmlns="http://www.w3.org/2000/svg">
  <!-- Фон страницы -->
  <rect width="1169" height="827" fill="#F5F5F5"/>
  
  <!-- Верхняя навигационная панель -->
  <rect y="0" width="1169" height="70" fill="#5C6BC0"/>
  
  <!-- Лого -->
  <text x="40" y="42" font-family="Montserrat" font-size="24" font-weight="700" fill="white">GeekHeaven</text>
  
  <!-- Строка поиска -->
  <rect x="350" y="20" width="400" height="36" rx="18" fill="white" fill-opacity="0.2" stroke="white" stroke-width="1"/>
  <text x="375" y="42" font-family="Roboto" font-size="14" fill="white" fill-opacity="0.8">Поиск...</text>
  <path d="M725 33.5C725 37.0899 722.09 40 718.5 40C714.91 40 712 37.0899 712 33.5C712 29.9101 714.91 27 718.5 27C722.09 27 725 29.9101 725 33.5Z" stroke="white" stroke-width="1.5"/>
  
  <!-- Иконки в правой части -->
  <circle cx="1080" cy="35" r="20" fill="white" fill-opacity="0.3"/>
  <text x="1074" y="41" font-family="Montserrat" font-size="24" fill="white">👤</text>
  
  <!-- Боковая навигация -->
  <rect x="0" y="70" width="240" height="757" fill="#212121"/>
  
  <!-- Пункты меню -->
  <text x="50" y="210" font-family="Roboto" font-size="16" fill="white" fill-opacity="0.7">Главная</text>
  <path d="M25 210L35 195L45 210" stroke="white" stroke-width="2" stroke-opacity="0.7"/>
  
  <text x="50" y="260" font-family="Roboto" font-size="16" fill="white" fill-opacity="0.7">Моя библиотека</text>
  <path d="M25 260L35 245L45 260" stroke="white" stroke-width="2" stroke-opacity="0.7"/>
  
  <text x="50" y="310" font-family="Roboto" font-size="16" fill="white" fill-opacity="0.7">Мои коллекции</text>
  <path d="M25 310L35 295L45 310" stroke="white" stroke-width="2" stroke-opacity="0.7"/>
  
  <text x="50" y="360" font-family="Roboto" font-size="16" fill="white" fill-opacity="0.7">Достижения</text>
  <path d="M25 360L35 345L45 360" stroke="white" stroke-width="2" stroke-opacity="0.7"/>
  
  <text x="20" y="420" font-family="Roboto" font-size="14" fill="white" fill-opacity="0.5">КАТЕГОРИИ КОНТЕНТА</text>
  
  <text x="50" y="470" font-family="Roboto" font-size="16" fill="white" fill-opacity="0.7">Игры</text>
  <text x="25" y="470" font-family="Roboto" font-size="16" fill="white" fill-opacity="0.7">🎮</text>
  
  <text x="50" y="520" font-family="Roboto" font-size="16" fill="white" fill-opacity="0.7">Фильмы и сериалы</text>
  <text x="25" y="520" font-family="Roboto" font-size="16" fill="white" fill-opacity="0.7">🎬</text>
  
  <text x="50" y="570" font-family="Roboto" font-size="16" fill="white" fill-opacity="0.7">Книги</text>
  <text x="25" y="570" font-family="Roboto" font-size="16" fill="white" fill-opacity="0.7">📚</text>
  
  <text x="50" y="620" font-family="Roboto" font-size="16" fill="white" fill-opacity="0.7">Комиксы и манга</text>
  <text x="25" y="620" font-family="Roboto" font-size="16" fill="white" fill-opacity="0.7">💬</text>
  
  <text x="50" y="670" font-family="Roboto" font-size="16" fill="white" fill-opacity="0.7">Аниме</text>
  <text x="25" y="670" font-family="Roboto" font-size="16" fill="white" fill-opacity="0.7">✨</text>
  
  <!-- Основной контент -->
  <rect x="240" y="70" width="929" height="757" fill="#F5F5F5"/>
  
  <!-- Профиль пользователя -->
  <rect x="280" y="100" width="840" height="180" rx="10" fill="white" filter="drop-shadow(0px 2px 6px rgba(0,0,0,0.1))"/>
  
  <!-- Аватар пользователя -->
  <circle cx="360" cy="160" r="60" fill="#5C6BC0" opacity="0.8"/>
  <text x="335" y="175" font-family="Montserrat" font-size="50" fill="white">GG</text>
  
  <!-- Информация о пользователе -->
  <text x="440" y="140" font-family="Montserrat" font-size="28" font-weight="700" fill="#212121">GameGuru</text>
  <text x="440" y="170" font-family="Roboto" font-size="16" fill="#757575">На сайте с: 12 марта 2023</text>
  <text x="440" y="200" font-family="Roboto" font-size="16" fill="#757575">Геймер, любитель фантастики и азиатской культуры. Увлекаюсь коллекционированием редких изданий и прохождением инди-игр.</text>
  <text x="440" y="220" font-family="Roboto" font-size="16" fill="#757575">Любимые жанры: RPG, научная фантастика, киберпанк.</text>
  
  <!-- Кнопка редактирования -->
  <rect x="940" y="120" width="160" height="40" rx="20" fill="#5C6BC0" filter="drop-shadow(0px 2px 2px rgba(0,0,0,0.1))"/>
  <text x="965" y="145" font-family="Roboto" font-size="14" font-weight="500" fill="white">Редактировать профиль</text>
  
  <!-- Статистика пользователя -->
  <rect x="280" y="300" width="840" height="80" rx="10" fill="white" filter="drop-shadow(0px 2px 6px rgba(0,0,0,0.1))"/>
  
  <text x="300" y="330" font-family="Montserrat" font-size="18" font-weight="700" fill="#212121">Статистика</text>
  
  <!-- Статистика по категориям -->
  <text x="300" y="360" font-family="Roboto" font-size="14" fill="#212121">Игры: 15</text>
  <rect x="300" y="370" width="80" height="4" rx="2" fill="#5C6BC0"/>
  
  <text x="400" y="360" font-family="Roboto" font-size="14" fill="#212121">Фильмы: 42</text>
  <rect x="400" y="370" width="100" height="4" rx="2" fill="#FF4081"/>
  
  <text x="520" y="360" font-family="Roboto" font-size="14" fill="#212121">Сериалы: 12</text>
  <rect x="520" y="370" width="70" height="4" rx="2" fill="#FF4081"/>
  
  <text x="610" y="360" font-family="Roboto" font-size="14" fill="#212121">Книги: 28</text>
  <rect x="610" y="370" width="90" height="4" rx="2" fill="#FFC107"/>
  
  <text x="720" y="360" font-family="Roboto" font-size="14" fill="#212121">Комиксы: 7</text>
  <rect x="720" y="370" width="60" height="4" rx="2" fill="#9C27B0"/>
  
  <text x="800" y="360" font-family="Roboto" font-size="14" fill="#212121">Аниме: 23</text>
  <rect x="800" y="370" width="85" height="4" rx="2" fill="#2196F3"/>
  
  <text x="905" y="360" font-family="Roboto" font-size="14" fill="#212121">Отзывы: 35</text>
  <rect x="905" y="370" width="95" height="4" rx="2" fill="#4CAF50"/>
  
  <!-- Заголовок достижений -->
  <text x="280" y="410" font-family="Montserrat" font-size="22" font-weight="700" fill="#212121">Достижения</text>
  <text x="440" y="410" font-family="Roboto" font-size="14" fill="#4CAF50">12 получено</text>
  <text x="530" y="410" font-family="Roboto" font-size="14" fill="#757575">•</text>
  <text x="540" y="410" font-family="Roboto" font-size="14" fill="#FFC107">8 в процессе</text>
  <text x="800" y="410" font-family="Roboto" font-size="14" fill="#5C6BC0">Показать все →</text>
  
  <!-- Плитка достижений -->
  <rect x="280" y="430" width="180" height="90" rx="8" fill="white" filter="drop-shadow(0px 2px 4px rgba(0,0,0,0.1))"/>
  <circle cx="310" cy="460" r="20" fill="#4CAF50"/>
  <text x="305" y="466" font-family="Roboto" font-size="14" fill="white">🏆</text>
  <text x="340" y="455" font-family="Roboto" font-size="14" font-weight="700" fill="#212121">Коллекционер</text>
  <text x="340" y="475" font-family="Roboto" font-size="12" fill="#757575">Создайте 5 коллекций</text>
  <text x="340" y="495" font-family="Roboto" font-size="12" fill="#4CAF50">Выполнено</text>
  
  <rect x="480" y="430" width="180" height="90" rx="8" fill="white" filter="drop-shadow(0px 2px 4px rgba(0,0,0,0.1))"/>
  <circle cx="510" cy="460" r="20" fill="#4CAF50"/>
  <text x="505" y="466" font-family="Roboto" font-size="14" fill="white">📚</text>
  <text x="540" y="455" font-family="Roboto" font-size="14" font-weight="700" fill="#212121">Книжный червь</text>
  <text x="540" y="475" font-family="Roboto" font-size="12" fill="#757575">Прочтите 25 книг</text>
  <text x="540" y="495" font-family="Roboto" font-size="12" fill="#4CAF50">Выполнено</text>
  
  <rect x="680" y="430" width="180" height="90" rx="8" fill="white" filter="drop-shadow(0px 2px 4px rgba(0,0,0,0.1))"/>
  <circle cx="710" cy="460" r="20" fill="#FFC107"/>
  <text x="705" y="466" font-family="Roboto" font-size="14" fill="white">🎮</text>
  <text x="740" y="455" font-family="Roboto" font-size="14" font-weight="700" fill="#212121">Геймер</text>
  <text x="740" y="475" font-family="Roboto" font-size="12" fill="#757575">Пройдите 20 игр</text>
  <rect x="740" y="490" width="100" height="6" rx="3" fill="#E0E0E0"/>
  <rect x="740" y="490" width="75" height="6" rx="3" fill="#FFC107"/>
  <text x="855" y="495" font-family="Roboto" font-size="10" fill="#757575">15/20</text>
  
   <rect x="880" y="430" width="180" height="90" rx="8" fill="white" filter="drop-shadow(0px 2px 4px rgba(0,0,0,0.1))"/>
  <circle cx="910" cy="460" r="20" fill="#9E9E9E" opacity="0.6"/>
  <text x="905" y="466" font-family="Roboto" font-size="14" fill="white">🎬</text>
</svg>